<svg viewBox="0 0 512 512" xmlns="http://www.w3.org/2000/svg">
  <defs>
    <linearGradient id="orange" x1="0" y1="370" x2="0" y2="430" gradientUnits="userSpaceOnUse">
      <stop offset="0" stop-color="#FFB347"/>
      <stop offset="0.5" stop-color="#FF8C00"/>
      <stop offset="1" stop-color="#C45A00"/>
    </linearGradient>
  </defs>
  <rect width="512" height="512" rx="48" fill="#0D1421"/>
  <path d="M80,140 L80,80 L140,80" stroke="#2D3748" stroke-width="12" fill="none" stroke-linecap="round" stroke-linejoin="round"/>
  <path d="M372,80 L432,80 L432,140" stroke="#2D3748" stroke-width="12" fill="none" stroke-linecap="round" stroke-linejoin="round"/>
  <path d="M80,372 L80,432 L140,432" stroke="#2D3748" stroke-width="12" fill="none" stroke-linecap="round" stroke-linejoin="round"/>
  <path d="M372,432 L432,432 L432,372" stroke="#2D3748" stroke-width="12" fill="none" stroke-linecap="round" stroke-linejoin="round"/>
  <text x="256" y="160" font-family="monospace" font-size="72" font-weight="700" fill="#4DD0E1" text-anchor="middle" letter-spacing="12">HRTK</text>
  <line x1="130" y1="185" x2="382" y2="185" stroke="#2D3748" stroke-width="3"/>
  <polyline points="175,314 225,373 345,243" stroke="#22C55E" stroke-width="30" fill="none" stroke-linecap="round" stroke-linejoin="round"/>
  <g transform="translate(384,395) scale(0.4)">
    <g stroke="#0D1421" stroke-width="29" stroke-linecap="square" stroke-linejoin="miter" fill="none">
      <path d="M-40 -28 L-68 0 L-40 28"/>
      <path d="M-10 36 L12 -40"/>
      <path d="M40 -28 L68 0 L40 28"/>
    </g>
    <g stroke="url(#orange)" stroke-width="16" stroke-linecap="square" stroke-linejoin="miter" fill="none">
      <path d="M-40 -28 L-68 0 L-40 28"/>
      <path d="M-10 36 L12 -40"/>
      <path d="M40 -28 L68 0 L40 28"/>
    </g>
  </g>
</svg>
